<mxfile host="app.diagrams.net" modified="2022-02-16T08:49:10.628Z" agent="5.0 (Windows NT 10.0; Win64; x64) AppleWebKit/537.36 (KHTML, like Gecko) Chrome/98.0.4758.80 Safari/537.36 Edg/98.0.1108.50" etag="dqIUuEUhykIlPhMy2MQw" version="16.5.6" type="github">
  <diagram id="UPyzFVB5CWtIWvco0NpC" name="Page-1">
    <mxGraphModel dx="1331" dy="883" grid="1" gridSize="10" guides="1" tooltips="1" connect="1" arrows="1" fold="1" page="1" pageScale="1" pageWidth="1169" pageHeight="827" math="0" shadow="0">
      <root>
        <mxCell id="0" />
        <mxCell id="1" parent="0" />
        <mxCell id="FuCtnfCme6ja_bBjiec3-1" value="&lt;p style=&quot;font-family: consolas, &amp;quot;courier new&amp;quot;, monospace; font-size: 27px; line-height: 19px;&quot;&gt;&lt;span style=&quot;font-style: italic; font-size: 27px;&quot;&gt;&lt;span style=&quot;font-size: 27px;&quot;&gt;&lt;font color=&quot;#ff8000&quot; style=&quot;font-size: 27px;&quot;&gt;IDLE_STATE&lt;/font&gt;&lt;/span&gt;&lt;/span&gt;&lt;/p&gt;" style="ellipse;whiteSpace=wrap;html=1;fontSize=27;fontStyle=1" vertex="1" parent="1">
          <mxGeometry x="850" y="40" width="250" height="110" as="geometry" />
        </mxCell>
        <mxCell id="FuCtnfCme6ja_bBjiec3-2" value="&lt;p style=&quot;line-height: 19px; font-size: 27px;&quot;&gt;&lt;font face=&quot;consolas, courier new, monospace&quot; style=&quot;font-size: 27px;&quot;&gt;&lt;span style=&quot;font-size: 27px;&quot;&gt;&lt;span style=&quot;font-size: 27px;&quot;&gt;&lt;i style=&quot;font-size: 27px;&quot;&gt;&lt;font color=&quot;#ff8000&quot; style=&quot;font-size: 27px;&quot;&gt;START_STATE&lt;/font&gt;&lt;/i&gt;&lt;/span&gt;&lt;/span&gt;&lt;/font&gt;&lt;br style=&quot;font-size: 27px;&quot;&gt;&lt;/p&gt;" style="ellipse;whiteSpace=wrap;html=1;fontSize=27;fontStyle=1" vertex="1" parent="1">
          <mxGeometry x="1380" y="35" width="280" height="120" as="geometry" />
        </mxCell>
        <mxCell id="FuCtnfCme6ja_bBjiec3-32" value="" style="edgeStyle=orthogonalEdgeStyle;rounded=0;orthogonalLoop=1;jettySize=auto;html=1;fontColor=#FF8000;fontSize=27;fontStyle=1" edge="1" parent="1" source="FuCtnfCme6ja_bBjiec3-3" target="FuCtnfCme6ja_bBjiec3-4">
          <mxGeometry relative="1" as="geometry" />
        </mxCell>
        <mxCell id="FuCtnfCme6ja_bBjiec3-3" value="&lt;p style=&quot;line-height: 19px; font-size: 27px;&quot;&gt;&lt;font face=&quot;consolas, courier new, monospace&quot; style=&quot;font-size: 27px;&quot;&gt;&lt;span style=&quot;font-size: 27px;&quot;&gt;&lt;span style=&quot;font-size: 27px;&quot;&gt;&lt;i style=&quot;font-size: 27px;&quot;&gt;&lt;font color=&quot;#ff8000&quot; style=&quot;font-size: 27px;&quot;&gt;RESETWAIT_STATE&lt;/font&gt;&lt;/i&gt;&lt;/span&gt;&lt;/span&gt;&lt;/font&gt;&lt;br style=&quot;font-size: 27px;&quot;&gt;&lt;/p&gt;" style="ellipse;whiteSpace=wrap;html=1;fontSize=27;fontStyle=1" vertex="1" parent="1">
          <mxGeometry x="40" y="400" width="280" height="120" as="geometry" />
        </mxCell>
        <mxCell id="FuCtnfCme6ja_bBjiec3-4" value="&lt;p style=&quot;line-height: 19px; font-size: 27px;&quot;&gt;&lt;font face=&quot;consolas, courier new, monospace&quot; style=&quot;font-size: 27px;&quot;&gt;&lt;span style=&quot;font-size: 27px;&quot;&gt;&lt;span style=&quot;font-size: 27px;&quot;&gt;&lt;i style=&quot;font-size: 27px;&quot;&gt;&lt;font color=&quot;#ff8000&quot; style=&quot;font-size: 27px;&quot;&gt;RESETCHECK_STATE&lt;/font&gt;&lt;/i&gt;&lt;/span&gt;&lt;/span&gt;&lt;/font&gt;&lt;br style=&quot;font-size: 27px;&quot;&gt;&lt;/p&gt;" style="ellipse;whiteSpace=wrap;html=1;fontSize=27;fontStyle=1" vertex="1" parent="1">
          <mxGeometry x="40" y="560" width="280" height="120" as="geometry" />
        </mxCell>
        <mxCell id="FuCtnfCme6ja_bBjiec3-41" value="" style="edgeStyle=orthogonalEdgeStyle;rounded=0;orthogonalLoop=1;jettySize=auto;html=1;fontColor=#FF8000;fontSize=27;fontStyle=1" edge="1" parent="1" source="FuCtnfCme6ja_bBjiec3-5" target="FuCtnfCme6ja_bBjiec3-6">
          <mxGeometry relative="1" as="geometry" />
        </mxCell>
        <mxCell id="FuCtnfCme6ja_bBjiec3-5" value="&lt;p style=&quot;line-height: 19px; font-size: 27px;&quot;&gt;&lt;font face=&quot;consolas, courier new, monospace&quot; style=&quot;font-size: 27px;&quot;&gt;&lt;span style=&quot;font-size: 27px;&quot;&gt;&lt;span style=&quot;font-size: 27px;&quot;&gt;&lt;i style=&quot;font-size: 27px;&quot;&gt;&lt;font color=&quot;#ff8000&quot; style=&quot;font-size: 27px;&quot;&gt;WRCFG1_STATE&lt;/font&gt;&lt;/i&gt;&lt;/span&gt;&lt;/span&gt;&lt;/font&gt;&lt;br style=&quot;font-size: 27px;&quot;&gt;&lt;/p&gt;" style="ellipse;whiteSpace=wrap;html=1;fontSize=27;fontStyle=1" vertex="1" parent="1">
          <mxGeometry x="405" y="400" width="280" height="120" as="geometry" />
        </mxCell>
        <mxCell id="FuCtnfCme6ja_bBjiec3-34" value="" style="edgeStyle=orthogonalEdgeStyle;rounded=0;orthogonalLoop=1;jettySize=auto;html=1;fontColor=#FF8000;fontSize=27;fontStyle=1" edge="1" parent="1" source="FuCtnfCme6ja_bBjiec3-6" target="FuCtnfCme6ja_bBjiec3-7">
          <mxGeometry relative="1" as="geometry" />
        </mxCell>
        <mxCell id="FuCtnfCme6ja_bBjiec3-6" value="&lt;p style=&quot;line-height: 19px; font-size: 27px;&quot;&gt;&lt;font face=&quot;consolas, courier new, monospace&quot; style=&quot;font-size: 27px;&quot;&gt;&lt;span style=&quot;font-size: 27px;&quot;&gt;&lt;span style=&quot;font-size: 27px;&quot;&gt;&lt;i style=&quot;font-size: 27px;&quot;&gt;&lt;font color=&quot;#ff8000&quot; style=&quot;font-size: 27px;&quot;&gt;CHKCFG1_STATE&lt;/font&gt;&lt;/i&gt;&lt;/span&gt;&lt;/span&gt;&lt;/font&gt;&lt;br style=&quot;font-size: 27px;&quot;&gt;&lt;/p&gt;" style="ellipse;whiteSpace=wrap;html=1;fontSize=27;fontStyle=1" vertex="1" parent="1">
          <mxGeometry x="405" y="570" width="280" height="120" as="geometry" />
        </mxCell>
        <mxCell id="FuCtnfCme6ja_bBjiec3-31" value="" style="edgeStyle=orthogonalEdgeStyle;rounded=0;orthogonalLoop=1;jettySize=auto;html=1;fontColor=#FF8000;fontSize=27;fontStyle=1" edge="1" parent="1" source="FuCtnfCme6ja_bBjiec3-7" target="FuCtnfCme6ja_bBjiec3-8">
          <mxGeometry relative="1" as="geometry" />
        </mxCell>
        <mxCell id="FuCtnfCme6ja_bBjiec3-7" value="&lt;p style=&quot;line-height: 19px; font-size: 27px;&quot;&gt;&lt;font face=&quot;consolas, courier new, monospace&quot; style=&quot;font-size: 27px;&quot;&gt;&lt;span style=&quot;font-size: 27px;&quot;&gt;&lt;span style=&quot;font-size: 27px;&quot;&gt;&lt;i style=&quot;font-size: 27px;&quot;&gt;&lt;font color=&quot;#ff8000&quot; style=&quot;font-size: 27px;&quot;&gt;WREOC_STATE&lt;/font&gt;&lt;/i&gt;&lt;/span&gt;&lt;/span&gt;&lt;/font&gt;&lt;br style=&quot;font-size: 27px;&quot;&gt;&lt;/p&gt;" style="ellipse;whiteSpace=wrap;html=1;fontSize=27;fontStyle=1" vertex="1" parent="1">
          <mxGeometry x="405" y="740" width="280" height="120" as="geometry" />
        </mxCell>
        <mxCell id="FuCtnfCme6ja_bBjiec3-8" value="&lt;p style=&quot;line-height: 19px; font-size: 27px;&quot;&gt;&lt;font face=&quot;consolas, courier new, monospace&quot; style=&quot;font-size: 27px;&quot;&gt;&lt;span style=&quot;font-size: 27px;&quot;&gt;&lt;span style=&quot;font-size: 27px;&quot;&gt;&lt;i style=&quot;font-size: 27px;&quot;&gt;&lt;font color=&quot;#ff8000&quot; style=&quot;font-size: 27px;&quot;&gt;CHKEOC_STATE&lt;/font&gt;&lt;/i&gt;&lt;/span&gt;&lt;/span&gt;&lt;/font&gt;&lt;br style=&quot;font-size: 27px;&quot;&gt;&lt;/p&gt;" style="ellipse;whiteSpace=wrap;html=1;fontSize=27;fontStyle=1" vertex="1" parent="1">
          <mxGeometry x="405" y="900" width="280" height="120" as="geometry" />
        </mxCell>
        <mxCell id="FuCtnfCme6ja_bBjiec3-30" value="" style="edgeStyle=orthogonalEdgeStyle;rounded=0;orthogonalLoop=1;jettySize=auto;html=1;fontColor=#FF8000;fontSize=27;fontStyle=1" edge="1" parent="1" source="FuCtnfCme6ja_bBjiec3-9" target="FuCtnfCme6ja_bBjiec3-10">
          <mxGeometry relative="1" as="geometry" />
        </mxCell>
        <mxCell id="FuCtnfCme6ja_bBjiec3-9" value="&lt;p style=&quot;line-height: 19px; font-size: 27px;&quot;&gt;&lt;font face=&quot;consolas, courier new, monospace&quot; style=&quot;font-size: 27px;&quot;&gt;&lt;span style=&quot;font-size: 27px;&quot;&gt;&lt;span style=&quot;font-size: 27px;&quot;&gt;&lt;i style=&quot;font-size: 27px;&quot;&gt;&lt;font color=&quot;#ff8000&quot; style=&quot;font-size: 27px;&quot;&gt;CHKCUSNUM_STATE&lt;/font&gt;&lt;/i&gt;&lt;/span&gt;&lt;/span&gt;&lt;/font&gt;&lt;br style=&quot;font-size: 27px;&quot;&gt;&lt;/p&gt;" style="ellipse;whiteSpace=wrap;html=1;fontSize=27;fontStyle=1" vertex="1" parent="1">
          <mxGeometry x="842.5" y="390" width="280" height="120" as="geometry" />
        </mxCell>
        <mxCell id="FuCtnfCme6ja_bBjiec3-29" value="" style="edgeStyle=orthogonalEdgeStyle;rounded=0;orthogonalLoop=1;jettySize=auto;html=1;fontColor=#FF8000;fontSize=27;fontStyle=1" edge="1" parent="1" source="FuCtnfCme6ja_bBjiec3-10" target="FuCtnfCme6ja_bBjiec3-11">
          <mxGeometry relative="1" as="geometry" />
        </mxCell>
        <mxCell id="FuCtnfCme6ja_bBjiec3-10" value="&lt;p style=&quot;line-height: 19px; font-size: 27px;&quot;&gt;&lt;font face=&quot;consolas, courier new, monospace&quot; style=&quot;font-size: 27px;&quot;&gt;&lt;span style=&quot;font-size: 27px;&quot;&gt;&lt;span style=&quot;font-size: 27px;&quot;&gt;&lt;i style=&quot;font-size: 27px;&quot;&gt;&lt;font color=&quot;#ff8000&quot; style=&quot;font-size: 27px;&quot;&gt;CHKTYPE_STATE&lt;/font&gt;&lt;/i&gt;&lt;/span&gt;&lt;/span&gt;&lt;/font&gt;&lt;br style=&quot;font-size: 27px;&quot;&gt;&lt;/p&gt;" style="ellipse;whiteSpace=wrap;html=1;fontSize=27;fontStyle=1" vertex="1" parent="1">
          <mxGeometry x="842.5" y="540" width="280" height="120" as="geometry" />
        </mxCell>
        <mxCell id="FuCtnfCme6ja_bBjiec3-28" value="" style="edgeStyle=orthogonalEdgeStyle;rounded=0;orthogonalLoop=1;jettySize=auto;html=1;fontColor=#FF8000;fontSize=27;fontStyle=1" edge="1" parent="1" source="FuCtnfCme6ja_bBjiec3-11" target="FuCtnfCme6ja_bBjiec3-12">
          <mxGeometry relative="1" as="geometry" />
        </mxCell>
        <mxCell id="FuCtnfCme6ja_bBjiec3-11" value="&lt;p style=&quot;line-height: 19px; font-size: 27px;&quot;&gt;&lt;font face=&quot;consolas, courier new, monospace&quot; style=&quot;font-size: 27px;&quot;&gt;&lt;span style=&quot;font-size: 27px;&quot;&gt;&lt;span style=&quot;font-size: 27px;&quot;&gt;&lt;i style=&quot;font-size: 27px;&quot;&gt;&lt;font color=&quot;#ff8000&quot; style=&quot;font-size: 27px;&quot;&gt;CHKASICSERNUM_STATE&lt;/font&gt;&lt;/i&gt;&lt;/span&gt;&lt;/span&gt;&lt;/font&gt;&lt;br style=&quot;font-size: 27px;&quot;&gt;&lt;/p&gt;" style="ellipse;whiteSpace=wrap;html=1;fontSize=27;fontStyle=1" vertex="1" parent="1">
          <mxGeometry x="825" y="700" width="315" height="120" as="geometry" />
        </mxCell>
        <mxCell id="FuCtnfCme6ja_bBjiec3-12" value="&lt;p style=&quot;line-height: 19px; font-size: 27px;&quot;&gt;&lt;font face=&quot;consolas, courier new, monospace&quot; style=&quot;font-size: 27px;&quot;&gt;&lt;span style=&quot;font-size: 27px;&quot;&gt;&lt;span style=&quot;font-size: 27px;&quot;&gt;&lt;i style=&quot;font-size: 27px;&quot;&gt;&lt;font color=&quot;#ff8000&quot; style=&quot;font-size: 27px;&quot;&gt;CHKSMISERNUM_STATE&lt;/font&gt;&lt;/i&gt;&lt;/span&gt;&lt;/span&gt;&lt;/font&gt;&lt;br style=&quot;font-size: 27px;&quot;&gt;&lt;/p&gt;" style="ellipse;whiteSpace=wrap;html=1;fontSize=27;fontStyle=1" vertex="1" parent="1">
          <mxGeometry x="820" y="860" width="325" height="120" as="geometry" />
        </mxCell>
        <mxCell id="FuCtnfCme6ja_bBjiec3-19" value="" style="edgeStyle=orthogonalEdgeStyle;rounded=0;orthogonalLoop=1;jettySize=auto;html=1;fontColor=#FF8000;fontSize=27;fontStyle=1" edge="1" parent="1" source="FuCtnfCme6ja_bBjiec3-13" target="FuCtnfCme6ja_bBjiec3-14">
          <mxGeometry relative="1" as="geometry" />
        </mxCell>
        <mxCell id="FuCtnfCme6ja_bBjiec3-13" value="&lt;p style=&quot;line-height: 19px; font-size: 27px;&quot;&gt;&lt;font face=&quot;consolas, courier new, monospace&quot; style=&quot;font-size: 27px;&quot;&gt;&lt;span style=&quot;font-size: 27px;&quot;&gt;&lt;span style=&quot;font-size: 27px;&quot;&gt;&lt;i style=&quot;font-size: 27px;&quot;&gt;&lt;font color=&quot;#ff8000&quot; style=&quot;font-size: 27px;&quot;&gt;BITEACCSUMWAIT_STATE&lt;/font&gt;&lt;/i&gt;&lt;/span&gt;&lt;/span&gt;&lt;/font&gt;&lt;br style=&quot;font-size: 27px;&quot;&gt;&lt;/p&gt;" style="ellipse;whiteSpace=wrap;html=1;fontSize=27;fontStyle=1" vertex="1" parent="1">
          <mxGeometry x="1442.5" y="400" width="325" height="120" as="geometry" />
        </mxCell>
        <mxCell id="FuCtnfCme6ja_bBjiec3-18" value="" style="edgeStyle=orthogonalEdgeStyle;rounded=0;orthogonalLoop=1;jettySize=auto;html=1;fontColor=#FF8000;fontSize=27;fontStyle=1" edge="1" parent="1" source="FuCtnfCme6ja_bBjiec3-14" target="FuCtnfCme6ja_bBjiec3-15">
          <mxGeometry relative="1" as="geometry" />
        </mxCell>
        <mxCell id="FuCtnfCme6ja_bBjiec3-14" value="&lt;p style=&quot;line-height: 19px; font-size: 27px;&quot;&gt;&lt;font face=&quot;consolas, courier new, monospace&quot; style=&quot;font-size: 27px;&quot;&gt;&lt;span style=&quot;font-size: 27px;&quot;&gt;&lt;span style=&quot;font-size: 27px;&quot;&gt;&lt;i style=&quot;font-size: 27px;&quot;&gt;&lt;font color=&quot;#ff8000&quot; style=&quot;font-size: 27px;&quot;&gt;CHECKBITEACCSUMACCSUMERROR_STATE&lt;/font&gt;&lt;/i&gt;&lt;/span&gt;&lt;/span&gt;&lt;/font&gt;&lt;br style=&quot;font-size: 27px;&quot;&gt;&lt;/p&gt;" style="ellipse;whiteSpace=wrap;html=1;fontSize=27;fontStyle=1" vertex="1" parent="1">
          <mxGeometry x="1371.25" y="621.5" width="467.5" height="120" as="geometry" />
        </mxCell>
        <mxCell id="FuCtnfCme6ja_bBjiec3-15" value="&lt;p style=&quot;line-height: 19px; font-size: 27px;&quot;&gt;&lt;font face=&quot;consolas, courier new, monospace&quot; style=&quot;font-size: 27px;&quot;&gt;&lt;span style=&quot;font-size: 27px;&quot;&gt;&lt;span style=&quot;font-size: 27px;&quot;&gt;&lt;i style=&quot;font-size: 27px;&quot;&gt;&lt;font color=&quot;#ff8000&quot; style=&quot;font-size: 27px;&quot;&gt;CHECKBITEACCSUMACCSUMEVALUATE_STATE&lt;/font&gt;&lt;/i&gt;&lt;/span&gt;&lt;/span&gt;&lt;/font&gt;&lt;br style=&quot;font-size: 27px;&quot;&gt;&lt;/p&gt;" style="ellipse;whiteSpace=wrap;html=1;fontSize=27;fontStyle=1" vertex="1" parent="1">
          <mxGeometry x="1300" y="841.5" width="610" height="120" as="geometry" />
        </mxCell>
        <mxCell id="FuCtnfCme6ja_bBjiec3-33" value="" style="edgeStyle=orthogonalEdgeStyle;rounded=0;orthogonalLoop=1;jettySize=auto;html=1;fontColor=#FF8000;fontSize=27;fontStyle=1" edge="1" parent="1" source="FuCtnfCme6ja_bBjiec3-16" target="FuCtnfCme6ja_bBjiec3-17">
          <mxGeometry relative="1" as="geometry" />
        </mxCell>
        <mxCell id="FuCtnfCme6ja_bBjiec3-16" value="&lt;p style=&quot;line-height: 19px; font-size: 27px;&quot;&gt;&lt;font face=&quot;consolas, courier new, monospace&quot; style=&quot;font-size: 27px;&quot;&gt;&lt;span style=&quot;font-size: 27px;&quot;&gt;&lt;span style=&quot;font-size: 27px;&quot;&gt;&lt;i style=&quot;font-size: 27px;&quot;&gt;&lt;font color=&quot;#ff8000&quot; style=&quot;font-size: 27px;&quot;&gt;COMPLETED_STATE&lt;/font&gt;&lt;/i&gt;&lt;/span&gt;&lt;/span&gt;&lt;/font&gt;&lt;br style=&quot;font-size: 27px;&quot;&gt;&lt;/p&gt;" style="ellipse;whiteSpace=wrap;html=1;fontSize=27;fontStyle=1" vertex="1" parent="1">
          <mxGeometry x="820.0000000000001" y="1100" width="348.75" height="120" as="geometry" />
        </mxCell>
        <mxCell id="FuCtnfCme6ja_bBjiec3-17" value="&lt;p style=&quot;line-height: 19px; font-size: 27px;&quot;&gt;&lt;font face=&quot;consolas, courier new, monospace&quot; style=&quot;font-size: 27px;&quot;&gt;&lt;span style=&quot;font-size: 27px;&quot;&gt;&lt;span style=&quot;font-size: 27px;&quot;&gt;&lt;i style=&quot;font-size: 27px;&quot;&gt;&lt;font color=&quot;#ff8000&quot; style=&quot;font-size: 27px;&quot;&gt;ACTIONENDED_STATE&lt;/font&gt;&lt;/i&gt;&lt;/span&gt;&lt;/span&gt;&lt;/font&gt;&lt;br style=&quot;font-size: 27px;&quot;&gt;&lt;/p&gt;" style="ellipse;whiteSpace=wrap;html=1;fontSize=27;fontStyle=1" vertex="1" parent="1">
          <mxGeometry x="820.0000000000001" y="1259" width="348.75" height="120" as="geometry" />
        </mxCell>
        <mxCell id="FuCtnfCme6ja_bBjiec3-22" value="" style="curved=1;endArrow=classic;html=1;rounded=0;fontColor=#FF8000;exitX=0;exitY=0.5;exitDx=0;exitDy=0;fontSize=27;fontStyle=1;entryX=0;entryY=0.5;entryDx=0;entryDy=0;" edge="1" parent="1" source="FuCtnfCme6ja_bBjiec3-13" target="FuCtnfCme6ja_bBjiec3-15">
          <mxGeometry width="50" height="50" relative="1" as="geometry">
            <mxPoint x="1430" y="623" as="sourcePoint" />
            <mxPoint x="1370" y="763" as="targetPoint" />
            <Array as="points">
              <mxPoint x="1310" y="500" />
              <mxPoint x="1250" y="622" />
              <mxPoint x="1240" y="770" />
            </Array>
          </mxGeometry>
        </mxCell>
        <mxCell id="FuCtnfCme6ja_bBjiec3-23" value="TEST OK" style="text;html=1;strokeColor=none;fillColor=none;align=center;verticalAlign=middle;whiteSpace=wrap;rounded=0;labelBackgroundColor=none;fontColor=#FF8000;fontSize=27;fontStyle=1" vertex="1" parent="1">
          <mxGeometry x="1160" y="640" width="150" height="30" as="geometry" />
        </mxCell>
        <mxCell id="FuCtnfCme6ja_bBjiec3-24" value="TEST OK" style="text;html=1;strokeColor=none;fillColor=none;align=center;verticalAlign=middle;whiteSpace=wrap;rounded=0;labelBackgroundColor=none;fontColor=#FF8000;fontSize=27;fontStyle=1" vertex="1" parent="1">
          <mxGeometry x="1520" y="771.5" width="170" height="30" as="geometry" />
        </mxCell>
        <mxCell id="FuCtnfCme6ja_bBjiec3-27" value="TEST NOK" style="text;html=1;strokeColor=none;fillColor=none;align=center;verticalAlign=middle;whiteSpace=wrap;rounded=0;labelBackgroundColor=none;fontColor=#FF8000;fontSize=27;fontStyle=1" vertex="1" parent="1">
          <mxGeometry x="1520" y="551.5" width="180" height="30" as="geometry" />
        </mxCell>
        <mxCell id="FuCtnfCme6ja_bBjiec3-35" value="" style="curved=1;endArrow=classic;html=1;rounded=0;fontColor=#FF8000;exitX=0.544;exitY=1.012;exitDx=0;exitDy=0;exitPerimeter=0;entryX=0.5;entryY=0;entryDx=0;entryDy=0;fontSize=27;fontStyle=1" edge="1" parent="1" source="FuCtnfCme6ja_bBjiec3-1" target="FuCtnfCme6ja_bBjiec3-3">
          <mxGeometry width="50" height="50" relative="1" as="geometry">
            <mxPoint x="190" y="440" as="sourcePoint" />
            <mxPoint x="170" y="350" as="targetPoint" />
            <Array as="points">
              <mxPoint x="510" y="200" />
              <mxPoint x="360" y="250" />
              <mxPoint x="300" y="290" />
              <mxPoint x="250" y="320" />
              <mxPoint x="210" y="350" />
            </Array>
          </mxGeometry>
        </mxCell>
        <mxCell id="FuCtnfCme6ja_bBjiec3-36" value="&lt;div style=&quot;font-family: consolas, &amp;quot;courier new&amp;quot;, monospace; font-size: 27px; line-height: 19px;&quot;&gt;&lt;span style=&quot;font-style: italic; font-size: 27px;&quot;&gt;smi8Drvr_StAction_STARTPDCRESET_EVE&lt;/span&gt;&lt;/div&gt;" style="text;html=1;strokeColor=none;fillColor=none;align=center;verticalAlign=middle;whiteSpace=wrap;rounded=0;labelBackgroundColor=default;fontColor=#00FFFF;fontStyle=1;fontSize=27;" vertex="1" parent="1">
          <mxGeometry x="230" y="230" width="300" height="30" as="geometry" />
        </mxCell>
        <mxCell id="FuCtnfCme6ja_bBjiec3-39" value="" style="curved=1;endArrow=classic;html=1;rounded=0;fontColor=#FF8000;exitX=0.555;exitY=1.009;exitDx=0;exitDy=0;exitPerimeter=0;entryX=0.482;entryY=0;entryDx=0;entryDy=0;entryPerimeter=0;fontSize=27;fontStyle=1" edge="1" parent="1" source="FuCtnfCme6ja_bBjiec3-1" target="FuCtnfCme6ja_bBjiec3-5">
          <mxGeometry width="50" height="50" relative="1" as="geometry">
            <mxPoint x="420" y="340" as="sourcePoint" />
            <mxPoint x="470" y="290" as="targetPoint" />
            <Array as="points">
              <mxPoint x="640" y="230" />
            </Array>
          </mxGeometry>
        </mxCell>
        <mxCell id="FuCtnfCme6ja_bBjiec3-40" value="&lt;div style=&quot;font-family: consolas, &amp;quot;courier new&amp;quot;, monospace; font-size: 27px; line-height: 19px;&quot;&gt;&lt;span style=&quot;font-style: italic; font-size: 27px;&quot;&gt;smi8Drvr_StAction_STARTPDCCONFDEV_EVE&lt;/span&gt;&lt;/div&gt;" style="text;html=1;strokeColor=none;fillColor=none;align=center;verticalAlign=middle;whiteSpace=wrap;rounded=0;labelBackgroundColor=default;fontColor=#00FFFF;fontStyle=1;fontSize=27;" vertex="1" parent="1">
          <mxGeometry x="450" y="280" width="320" height="30" as="geometry" />
        </mxCell>
        <mxCell id="FuCtnfCme6ja_bBjiec3-42" value="" style="curved=1;endArrow=classic;html=1;rounded=0;fontColor=#FF8000;entryX=0.5;entryY=0;entryDx=0;entryDy=0;fontSize=27;fontStyle=1" edge="1" parent="1" target="FuCtnfCme6ja_bBjiec3-9">
          <mxGeometry width="50" height="50" relative="1" as="geometry">
            <mxPoint x="990" y="150" as="sourcePoint" />
            <mxPoint x="820" y="360" as="targetPoint" />
            <Array as="points">
              <mxPoint x="920" y="260" />
            </Array>
          </mxGeometry>
        </mxCell>
        <mxCell id="FuCtnfCme6ja_bBjiec3-44" value="&lt;div style=&quot;font-family: consolas, &amp;quot;courier new&amp;quot;, monospace; font-size: 27px; line-height: 19px;&quot;&gt;&lt;div style=&quot;font-family: consolas, &amp;quot;courier new&amp;quot;, monospace; line-height: 19px; font-size: 27px;&quot;&gt;&lt;span style=&quot;font-style: italic; font-size: 27px;&quot;&gt;smi8Drvr_StAction_STARTPDCCHECKTRACA_EVE&lt;/span&gt;&lt;/div&gt;&lt;/div&gt;" style="text;html=1;strokeColor=none;fillColor=none;align=center;verticalAlign=middle;whiteSpace=wrap;rounded=0;labelBackgroundColor=default;fontColor=#00FFFF;fontStyle=1;fontSize=27;" vertex="1" parent="1">
          <mxGeometry x="802.5" y="330" width="320" height="30" as="geometry" />
        </mxCell>
        <mxCell id="FuCtnfCme6ja_bBjiec3-45" value="" style="curved=1;endArrow=classic;html=1;rounded=0;fontColor=#FF8000;entryX=0.5;entryY=0;entryDx=0;entryDy=0;fontSize=27;fontStyle=1" edge="1" parent="1" target="FuCtnfCme6ja_bBjiec3-13">
          <mxGeometry width="50" height="50" relative="1" as="geometry">
            <mxPoint x="990" y="150" as="sourcePoint" />
            <mxPoint x="1180" y="220" as="targetPoint" />
            <Array as="points">
              <mxPoint x="1240" y="160" />
            </Array>
          </mxGeometry>
        </mxCell>
        <mxCell id="FuCtnfCme6ja_bBjiec3-46" value="&lt;div style=&quot;font-family: consolas, &amp;quot;courier new&amp;quot;, monospace; font-size: 27px; line-height: 19px;&quot;&gt;&lt;div style=&quot;font-family: consolas, &amp;quot;courier new&amp;quot;, monospace; line-height: 19px; font-size: 27px;&quot;&gt;&lt;div style=&quot;font-family: consolas, &amp;quot;courier new&amp;quot;, monospace; line-height: 19px; font-size: 27px;&quot;&gt;&lt;span style=&quot;font-style: italic; font-size: 27px;&quot;&gt;smi8Drvr_StAction_STARTPDCCHECKBITEACCSUMACCSUM_EVE&lt;/span&gt;&lt;/div&gt;&lt;/div&gt;&lt;/div&gt;" style="text;html=1;strokeColor=none;fillColor=none;align=center;verticalAlign=middle;whiteSpace=wrap;rounded=0;labelBackgroundColor=default;fontColor=#00FFFF;fontStyle=1;fontSize=27;" vertex="1" parent="1">
          <mxGeometry x="1230" y="240" width="320" height="30" as="geometry" />
        </mxCell>
      </root>
    </mxGraphModel>
  </diagram>
</mxfile>
